<?xml version="1.0" encoding="UTF-8" standalone="no"?>
<svg
   xmlns:dc="http://purl.org/dc/elements/1.1/"
   xmlns:cc="http://creativecommons.org/ns#"
   xmlns:rdf="http://www.w3.org/1999/02/22-rdf-syntax-ns#"
   xmlns:svg="http://www.w3.org/2000/svg"
   xmlns="http://www.w3.org/2000/svg"
   xmlns:sodipodi="http://sodipodi.sourceforge.net/DTD/sodipodi-0.dtd"
   xmlns:inkscape="http://www.inkscape.org/namespaces/inkscape"
   style="height: 32px; width: 32px;"
   viewBox="0 0 512 512"
   version="1.1"
   id="svg3768"
   sodipodi:docname="menu2.svg"
   inkscape:version="0.92.4 (5da689c313, 2019-01-14)">
  <metadata
     id="metadata3774">
    <rdf:RDF>
      <cc:Work
         rdf:about="">
        <dc:format>image/svg+xml</dc:format>
        <dc:type
           rdf:resource="http://purl.org/dc/dcmitype/StillImage" />
        <dc:title></dc:title>
      </cc:Work>
    </rdf:RDF>
  </metadata>
  <defs
     id="defs3772" />
  <sodipodi:namedview
     pagecolor="#ffffff"
     bordercolor="#666666"
     borderopacity="1"
     objecttolerance="10"
     gridtolerance="10"
     guidetolerance="10"
     inkscape:pageopacity="0"
     inkscape:pageshadow="2"
     inkscape:window-width="1856"
     inkscape:window-height="1057"
     id="namedview3770"
     showgrid="false"
     inkscape:zoom="0.86914063"
     inkscape:cx="97.173576"
     inkscape:cy="157.48468"
     inkscape:window-x="56"
     inkscape:window-y="-8"
     inkscape:window-maximized="1"
     inkscape:current-layer="svg3768" />
  <circle
     cx="256"
     cy="256"
     r="256"
     fill-opacity="1"
     id="circle3762" />
  <path
     inkscape:connector-curvature="0"
     d="m 255.99999,352.04493 c 26.41237,0 48.02249,21.61012 48.02249,48.02249 0,26.41235 -21.61012,48.02246 -48.02249,48.02246 -26.41235,0 -48.02246,-21.61011 -48.02246,-48.02246 0,-26.41237 21.61011,-48.02249 48.02246,-48.02249 z m 0,-48.02246 c -26.41235,0 -48.02246,-21.61011 -48.02246,-48.02248 0,-26.41235 21.61011,-48.02247 48.02246,-48.02247 26.41237,0 48.02249,21.61012 48.02249,48.02247 0,26.41237 -21.61012,48.02248 -48.02249,48.02248 z m 0,-144.06741 c -26.41235,0 -48.02246,-21.61011 -48.02246,-48.02248 0,-26.412341 21.61011,-48.022461 48.02246,-48.022461 26.41237,0 48.02249,21.61012 48.02249,48.022461 0,26.41237 -21.61012,48.02248 -48.02249,48.02248 z"
     id="path3790"
     style="fill:#ffffff;stroke-width:24.01123619" />
</svg>
