<?xml version="1.0" standalone="no"?>
<!DOCTYPE svg PUBLIC "-//W3C//DTD SVG 20010904//EN"
 "http://www.w3.org/TR/2001/REC-SVG-20010904/DTD/svg10.dtd">
<svg version="1.0" xmlns="http://www.w3.org/2000/svg"
 width="512.000000pt" height="512.000000pt" viewBox="0 0 512.000000 512.000000"
 preserveAspectRatio="xMidYMid meet">
<metadata>
Created by potrace 1.11, written by Peter Selinger 2001-2013
</metadata>
<g transform="translate(0.000000,512.000000) scale(0.100000,-0.100000)"
fill="#000000" stroke="none">
<path d="M466 5104 c-222 -54 -404 -240 -451 -459 -23 -107 -22 -4078 1 -4175
27 -114 78 -206 163 -290 85 -85 159 -128 271 -159 75 -21 78 -21 2130 -19
l2055 3 65 22 c185 63 329 207 393 393 l22 65 3 2055 c2 2054 2 2055 -19 2130
-30 111 -74 185 -159 271 -87 87 -182 140 -295 164 -104 22 -4089 21 -4179 -1z"/>
</g>
</svg>
