<?xml version="1.0" encoding="UTF-8" standalone="no"?>
<svg
   xmlns:dc="http://purl.org/dc/elements/1.1/"
   xmlns:cc="http://creativecommons.org/ns#"
   xmlns:rdf="http://www.w3.org/1999/02/22-rdf-syntax-ns#"
   xmlns:svg="http://www.w3.org/2000/svg"
   xmlns="http://www.w3.org/2000/svg"
   xmlns:sodipodi="http://sodipodi.sourceforge.net/DTD/sodipodi-0.dtd"
   xmlns:inkscape="http://www.inkscape.org/namespaces/inkscape"
   style="height: 32px; width: 32px;"
   viewBox="0 0 512 512"
   version="1.1"
   id="svg835"
   sodipodi:docname="see-dead.svg"
   inkscape:version="0.92.4 (5da689c313, 2019-01-14)">
  <metadata
     id="metadata841">
    <rdf:RDF>
      <cc:Work
         rdf:about="">
        <dc:format>image/svg+xml</dc:format>
        <dc:type
           rdf:resource="http://purl.org/dc/dcmitype/StillImage" />
        <dc:title></dc:title>
      </cc:Work>
    </rdf:RDF>
  </metadata>
  <defs
     id="defs839" />
  <sodipodi:namedview
     pagecolor="#ffffff"
     bordercolor="#666666"
     borderopacity="1"
     objecttolerance="10"
     gridtolerance="10"
     guidetolerance="10"
     inkscape:pageopacity="0"
     inkscape:pageshadow="2"
     inkscape:window-width="760"
     inkscape:window-height="405"
     id="namedview837"
     showgrid="false"
     inkscape:zoom="0.39774756"
     inkscape:cx="257.75429"
     inkscape:cy="332.87272"
     inkscape:window-x="237"
     inkscape:window-y="129"
     inkscape:window-maximized="0"
     inkscape:current-layer="svg835" />
  <circle
     cx="256"
     cy="256"
     r="256"
     
     fill-opacity="1"
     id="circle829" />
  <g
     class=""
     transform="translate(-2)"
     id="g833">
    <path
       d="m 255.997,16.004 c -120,0 -239.997,60 -239.997,149.998 0,60 45,89.998 45,149.998 0,45 -15,45 -15,75 0,14.998 48.01,32.002 89.998,44.998 v 60 h 239.997 v -60 c 0,0 90.567,-27.957 90,-45 -0.933,-27.947 -15,-30 -15,-74.998 0,-30 45.642,-91.42 44.998,-149.998 0,-90 -119.998,-149.998 -239.996,-149.998 z m -90,179.997 c 33.137,0 60,26.864 60,60 0,33.136 -26.863,60 -60,60 C 132.863,316 106,289.136 106,256 c 0,-33.136 26.862,-60 59.998,-60 z m 179.998,0 c 33.136,0 60,26.864 60,60 0,33.136 -26.864,60 -60,60 -33.136,0 -60,-26.864 -60,-60 0,-33.136 26.864,-60 60,-60 z m -89.998,105 c 15,0 45,60 45,75 0,29.998 0,29.998 -15,29.998 h -60 c -15,0 -15,0 -15,-30 0,-15 30,-74.998 45,-74.998 z"
       transform="matrix(0.7,0,0,0.7,76.8,76.8)"
       id="path831"
       inkscape:connector-curvature="0"
       style="fill:#ffffff;fill-opacity:1" />
  </g>
  <rect
     style="fill-opacity:1;stroke:none;stroke-width:0.96091884"
     id="rect845"
     width="471.54245"
     height="84.365952"
     x="-239.19647"
     y="330.85675"
     rx="0"
     ry="49.213493"
     transform="rotate(-45)" />
  <rect
     style="fill:#ffffff;fill-opacity:1;stroke:none;stroke-width:0.60464573"
     id="rect845-8"
     width="462.14819"
     height="34.082798"
     x="-236.0618"
     y="356.1832"
     rx="0"
     ry="19.881643"
     transform="rotate(-45)" />
</svg>
