<?xml version="1.0" standalone="no"?>
<!DOCTYPE svg PUBLIC "-//W3C//DTD SVG 20010904//EN"
 "http://www.w3.org/TR/2001/REC-SVG-20010904/DTD/svg10.dtd">
<svg version="1.0" xmlns="http://www.w3.org/2000/svg"
 width="512.000000pt" height="512.000000pt" viewBox="0 0 512.000000 512.000000"
 preserveAspectRatio="xMidYMid meet">
<metadata>
Created by potrace 1.11, written by Peter Selinger 2001-2013
</metadata>
<g transform="translate(0.000000,512.000000) scale(0.100000,-0.100000)"
fill="#000000" stroke="none">
<path d="M0 2560 l0 -2560 2560 0 2560 0 0 2560 0 2560 -2560 0 -2560 0 0
-2560z m1673 2145 c61 -16 217 -83 217 -94 0 -3 -28 -17 -62 -30 -179 -68
-258 -151 -258 -272 0 -44 2 -51 18 -45 9 3 55 19 102 35 198 71 322 25 410
-152 39 -77 40 -82 21 -85 -11 -2 -66 11 -122 27 -148 45 -211 41 -273 -17
-71 -67 -94 -184 -60 -316 17 -70 121 -289 134 -284 4 2 61 50 125 107 247
221 342 283 491 321 82 21 193 26 259 10 22 -5 41 -8 42 -6 2 1 -18 29 -43 62
-60 77 -98 153 -128 256 -24 84 -46 228 -46 306 0 40 2 43 23 37 12 -3 67 -28
122 -55 106 -52 191 -112 299 -210 l66 -60 680 0 c374 0 680 -2 680 -5 0 -12
-216 -435 -222 -435 -4 0 -35 36 -68 80 -33 44 -64 80 -68 80 -4 0 -54 -47
-113 -106 l-105 -105 -95 115 c-52 63 -96 115 -99 115 -6 1 -222 -244 -248
-281 -12 -16 -6 -26 44 -88 32 -38 61 -67 65 -64 5 3 36 40 69 84 l62 79 57
-62 c32 -34 73 -79 90 -100 l33 -37 97 82 c53 45 104 88 114 96 16 14 22 11
72 -38 30 -30 55 -59 55 -65 0 -15 -90 -229 -101 -240 -6 -6 -102 -10 -237
-10 -219 -1 -230 -2 -308 -28 -93 -31 -183 -86 -261 -160 -79 -74 -79 -77 -42
-146 74 -140 221 -238 395 -266 l41 -6 86 98 c127 145 240 238 353 290 47 22
74 27 134 28 65 0 82 -4 128 -29 55 -31 119 -101 154 -169 11 -22 18 -40 16
-42 -2 -2 -28 3 -58 11 -70 19 -174 12 -228 -15 -49 -25 -117 -101 -132 -148
-7 -19 -10 -36 -8 -38 1 -1 53 2 113 8 244 22 408 -33 466 -158 21 -46 26
-164 9 -230 -21 -79 -62 -185 -71 -180 -4 3 -24 56 -43 118 -57 180 -106 237
-206 237 -64 0 -123 -20 -116 -39 3 -9 20 -56 37 -106 58 -167 50 -292 -24
-365 -38 -38 -117 -94 -123 -87 -2 2 -11 64 -19 138 -35 302 -93 419 -209 419
-23 0 -122 -24 -221 -54 -209 -62 -307 -81 -382 -72 -149 17 -250 129 -323
355 l-28 83 -42 -53 c-83 -105 -120 -208 -120 -335 l0 -82 33 -7 c56 -12 259
-95 343 -141 304 -164 467 -400 519 -751 9 -58 -6 -80 -78 -113 -103 -48 -209
-65 -403 -65 l-172 0 -6 -44 c-10 -76 -6 -213 9 -283 31 -151 107 -280 246
-420 l86 -88 -358 0 -358 0 -68 75 c-112 124 -132 193 -97 329 32 126 174 372
343 591 34 44 64 90 67 102 20 78 -161 232 -341 289 -80 25 -135 30 -164 14
-10 -5 -67 -92 -127 -192 -207 -349 -320 -469 -496 -529 -114 -38 -267 -25
-416 37 -34 15 -66 24 -69 20 -13 -12 -15 -234 -4 -302 7 -38 30 -145 51 -238
22 -92 40 -174 40 -182 0 -12 -67 -14 -420 -14 -231 0 -420 3 -420 6 0 23 158
513 193 602 95 235 215 392 391 512 l49 33 184 -92 184 -91 -7 107 c-4 64 -2
152 5 217 7 59 10 110 8 112 -2 2 -64 22 -138 43 -421 124 -687 282 -787 468
-27 51 -77 202 -69 209 2 2 45 -10 97 -26 52 -16 95 -28 96 -27 1 1 -7 36 -18
77 -29 110 -29 288 1 395 27 99 87 222 143 297 41 54 43 56 54 35 6 -12 33
-96 58 -187 71 -249 108 -370 116 -370 3 0 20 20 38 45 29 42 64 65 96 65 10
0 15 -40 19 -167 6 -183 19 -249 68 -350 54 -113 165 -187 298 -199 l56 -5 60
87 c71 103 202 238 314 323 45 34 81 67 81 74 0 33 -40 339 -50 382 -15 65
-49 124 -82 141 -20 11 -78 14 -235 15 -118 1 -229 6 -258 12 -49 12 -49 13
-91 95 -61 119 -75 193 -73 376 l1 150 -80 53 c-280 185 -364 495 -182 671 38
37 124 82 135 70 3 -2 -2 -51 -11 -108 -23 -160 -1 -237 83 -291 79 -49 79
-49 86 109 8 158 25 249 61 319 28 57 84 110 124 119 15 3 32 7 37 9 24 8 85
4 138 -10z"/>
</g>
</svg>
